<mxfile host="app.diagrams.net" agent="Mozilla/5.0 (Windows NT 10.0; Win64; x64) AppleWebKit/537.36 (KHTML, like Gecko) Chrome/136.0.0.0 YaBrowser/25.6.0.0 Safari/537.36" version="27.2.0">
  <diagram name="Страница — 1" id="NIP-t8IP8uG3XBguRzJn">
    <mxGraphModel dx="2018" dy="1112" grid="1" gridSize="10" guides="1" tooltips="1" connect="1" arrows="1" fold="1" page="1" pageScale="1" pageWidth="1169" pageHeight="827" math="0" shadow="0">
      <root>
        <mxCell id="0" />
        <mxCell id="1" parent="0" />
        <mxCell id="gb8i5t0kMExSbUBaRNC0-19" style="edgeStyle=orthogonalEdgeStyle;rounded=0;orthogonalLoop=1;jettySize=auto;html=1;exitX=1;exitY=0.5;exitDx=0;exitDy=0;entryX=0;entryY=0.25;entryDx=0;entryDy=0;" edge="1" parent="1" source="gb8i5t0kMExSbUBaRNC0-7" target="gb8i5t0kMExSbUBaRNC0-12">
          <mxGeometry relative="1" as="geometry">
            <Array as="points">
              <mxPoint x="540" y="120" />
              <mxPoint x="540" y="407" />
            </Array>
          </mxGeometry>
        </mxCell>
        <mxCell id="gb8i5t0kMExSbUBaRNC0-7" value="Информационная система" style="ellipse;whiteSpace=wrap;html=1;" vertex="1" parent="1">
          <mxGeometry x="290" y="80" width="205" height="80" as="geometry" />
        </mxCell>
        <mxCell id="gb8i5t0kMExSbUBaRNC0-8" value="Системный уровень" style="swimlane;fontStyle=0;childLayout=stackLayout;horizontal=1;startSize=30;horizontalStack=0;resizeParent=1;resizeParentMax=0;resizeLast=0;collapsible=1;marginBottom=0;whiteSpace=wrap;html=1;" vertex="1" parent="1">
          <mxGeometry x="600" y="220" width="200" height="120" as="geometry" />
        </mxCell>
        <mxCell id="gb8i5t0kMExSbUBaRNC0-9" value="Модуль сбора данных" style="text;strokeColor=none;fillColor=none;align=left;verticalAlign=middle;spacingLeft=4;spacingRight=4;overflow=hidden;points=[[0,0.5],[1,0.5]];portConstraint=eastwest;rotatable=0;whiteSpace=wrap;html=1;" vertex="1" parent="gb8i5t0kMExSbUBaRNC0-8">
          <mxGeometry y="30" width="200" height="30" as="geometry" />
        </mxCell>
        <mxCell id="gb8i5t0kMExSbUBaRNC0-10" value="Модуль предобработки" style="text;strokeColor=none;fillColor=none;align=left;verticalAlign=middle;spacingLeft=4;spacingRight=4;overflow=hidden;points=[[0,0.5],[1,0.5]];portConstraint=eastwest;rotatable=0;whiteSpace=wrap;html=1;" vertex="1" parent="gb8i5t0kMExSbUBaRNC0-8">
          <mxGeometry y="60" width="200" height="30" as="geometry" />
        </mxCell>
        <mxCell id="gb8i5t0kMExSbUBaRNC0-11" value="Модуль нейронной сети" style="text;strokeColor=none;fillColor=none;align=left;verticalAlign=middle;spacingLeft=4;spacingRight=4;overflow=hidden;points=[[0,0.5],[1,0.5]];portConstraint=eastwest;rotatable=0;whiteSpace=wrap;html=1;" vertex="1" parent="gb8i5t0kMExSbUBaRNC0-8">
          <mxGeometry y="90" width="200" height="30" as="geometry" />
        </mxCell>
        <mxCell id="gb8i5t0kMExSbUBaRNC0-12" value="Пользовательский уровень" style="swimlane;fontStyle=0;childLayout=stackLayout;horizontal=1;startSize=30;horizontalStack=0;resizeParent=1;resizeParentMax=0;resizeLast=0;collapsible=1;marginBottom=0;whiteSpace=wrap;html=1;" vertex="1" parent="1">
          <mxGeometry x="600" y="384" width="200" height="90" as="geometry" />
        </mxCell>
        <mxCell id="gb8i5t0kMExSbUBaRNC0-13" value="База пациентов" style="text;strokeColor=none;fillColor=none;align=left;verticalAlign=middle;spacingLeft=4;spacingRight=4;overflow=hidden;points=[[0,0.5],[1,0.5]];portConstraint=eastwest;rotatable=0;whiteSpace=wrap;html=1;" vertex="1" parent="gb8i5t0kMExSbUBaRNC0-12">
          <mxGeometry y="30" width="200" height="30" as="geometry" />
        </mxCell>
        <mxCell id="gb8i5t0kMExSbUBaRNC0-14" value="Среда просмотра изображений" style="text;strokeColor=none;fillColor=none;align=left;verticalAlign=middle;spacingLeft=4;spacingRight=4;overflow=hidden;points=[[0,0.5],[1,0.5]];portConstraint=eastwest;rotatable=0;whiteSpace=wrap;html=1;" vertex="1" parent="gb8i5t0kMExSbUBaRNC0-12">
          <mxGeometry y="60" width="200" height="30" as="geometry" />
        </mxCell>
        <mxCell id="gb8i5t0kMExSbUBaRNC0-17" style="edgeStyle=orthogonalEdgeStyle;rounded=0;orthogonalLoop=1;jettySize=auto;html=1;exitX=1;exitY=0.5;exitDx=0;exitDy=0;entryX=-0.006;entryY=0.15;entryDx=0;entryDy=0;entryPerimeter=0;" edge="1" parent="1" source="gb8i5t0kMExSbUBaRNC0-7" target="gb8i5t0kMExSbUBaRNC0-8">
          <mxGeometry relative="1" as="geometry">
            <Array as="points">
              <mxPoint x="540" y="120" />
              <mxPoint x="540" y="238" />
            </Array>
          </mxGeometry>
        </mxCell>
      </root>
    </mxGraphModel>
  </diagram>
</mxfile>
